solid Created by Gmsh
facet normal 0.00271683 -0.0871554 -0.996191
  outer loop
    vertex 0.997777 -0.0666354 1.25446
    vertex 1.5 0 1.25
    vertex 1.5 -0.0868241 1.2576
  endloop
endfacet
facet normal 4.43197e-016 -0.0667845 -0.997767
  outer loop
    vertex 0.997777 -0.0666354 1.25446
    vertex 1 0 1.25
    vertex 1.5 0 1.25
  endloop
endfacet
facet normal 0.0037263 -0.258817 -0.965919
  outer loop
    vertex 0.991257 -0.131947 1.26772
    vertex 1.5 -0.0868241 1.2576
    vertex 1.5 -0.17101 1.28015
  endloop
endfacet
facet normal -0.00187384 -0.198845 -0.980029
  outer loop
    vertex 0.991257 -0.131947 1.26772
    vertex 0.997777 -0.0666354 1.25446
    vertex 1.5 -0.0868241 1.2576
  endloop
endfacet
facet normal -0.00202465 -0.327059 -0.945002
  outer loop
    vertex 0.980865 -0.19469 1.28946
    vertex 0.991257 -0.131947 1.26772
    vertex 1.5 -0.17101 1.28015
  endloop
endfacet
facet normal 0.00302796 -0.422616 -0.906304
  outer loop
    vertex 0.980865 -0.19469 1.28946
    vertex 1.5 -0.17101 1.28015
    vertex 1.5 -0.25 1.31699
  endloop
endfacet
facet normal -0.000499862 -0.449298 -0.893382
  outer loop
    vertex 0.967278 -0.253717 1.31915
    vertex 0.980865 -0.19469 1.28946
    vertex 1.5 -0.25 1.31699
  endloop
endfacet
facet normal 0.00218514 -0.573575 -0.81915
  outer loop
    vertex 0.951351 -0.308108 1.35621
    vertex 1.5 -0.25 1.31699
    vertex 1.5 -0.321394 1.36698
  endloop
endfacet
facet normal 0.0005674 -0.563159 -0.826348
  outer loop
    vertex 0.951351 -0.308108 1.35621
    vertex 0.967278 -0.253717 1.31915
    vertex 1.5 -0.25 1.31699
  endloop
endfacet
facet normal 0.00335773 -0.707103 -0.707103
  outer loop
    vertex 0.934821 -0.355119 1.39802
    vertex 1.5 -0.321394 1.36698
    vertex 1.5 -0.383022 1.42861
  endloop
endfacet
facet normal -0.00141704 -0.664264 -0.747496
  outer loop
    vertex 0.934821 -0.355119 1.39802
    vertex 0.951351 -0.308108 1.35621
    vertex 1.5 -0.321394 1.36698
  endloop
endfacet
facet normal 0.00222023 -0.81915 -0.573575
  outer loop
    vertex 0.918729 -0.394888 1.4433
    vertex 1.5 -0.383022 1.42861
    vertex 1.5 -0.433013 1.5
  endloop
endfacet
facet normal -0.00135719 -0.751133 -0.660149
  outer loop
    vertex 0.918729 -0.394888 1.4433
    vertex 0.934821 -0.355119 1.39802
    vertex 1.5 -0.383022 1.42861
  endloop
endfacet
facet normal 0.000910856 -0.825491 -0.564415
  outer loop
    vertex 0.90332 -0.428967 1.49312
    vertex 0.918729 -0.394888 1.4433
    vertex 1.5 -0.433013 1.5
  endloop
endfacet
facet normal 0.00298508 -0.906304 -0.422616
  outer loop
    vertex 0.889534 -0.456869 1.54685
    vertex 1.5 -0.433013 1.5
    vertex 1.5 -0.469846 1.57899
  endloop
endfacet
facet normal -0.00070114 -0.88739 -0.461019
  outer loop
    vertex 0.889534 -0.456869 1.54685
    vertex 0.90332 -0.428967 1.49312
    vertex 1.5 -0.433013 1.5
  endloop
endfacet
facet normal 0.00257271 -0.965923 -0.258818
  outer loop
    vertex 0.87827 -0.478165 1.60385
    vertex 1.5 -0.469846 1.57899
    vertex 1.5 -0.492404 1.66318
  endloop
endfacet
facet normal -0.00147324 -0.936674 -0.3502
  outer loop
    vertex 0.87827 -0.478165 1.60385
    vertex 0.889534 -0.456869 1.54685
    vertex 1.5 -0.469846 1.57899
  endloop
endfacet
facet normal -1.34003e-005 -0.972412 -0.233272
  outer loop
    vertex 0.870353 -0.492428 1.66331
    vertex 0.87827 -0.478165 1.60385
    vertex 1.5 -0.492404 1.66318
  endloop
endfacet
facet normal 0.00249953 -0.996192 -0.0871555
  outer loop
    vertex 0.866408 -0.499336 1.72424
    vertex 1.5 -0.492404 1.66318
    vertex 1.5 -0.5 1.75
  endloop
endfacet
facet normal 1.34987e-005 -0.993634 -0.11266
  outer loop
    vertex 0.866408 -0.499336 1.72424
    vertex 0.870353 -0.492428 1.66331
    vertex 1.5 -0.492404 1.66318
  endloop
endfacet
facet normal 0.00290437 -0.99619 0.0871554
  outer loop
    vertex 0.866758 -0.498728 1.78564
    vertex 1.5 -0.5 1.75
    vertex 1.5 -0.492404 1.83682
  endloop
endfacet
facet normal -0.00145066 -0.99995 0.00990148
  outer loop
    vertex 0.866758 -0.498728 1.78564
    vertex 0.866408 -0.499336 1.72424
    vertex 1.5 -0.5 1.75
  endloop
endfacet
facet normal -0.000797716 -0.991204 0.132337
  outer loop
    vertex 0.871373 -0.49062 1.84639
    vertex 0.866758 -0.498728 1.78564
    vertex 1.5 -0.492404 1.83682
  endloop
endfacet
facet normal 0.00187128 -0.965924 0.258819
  outer loop
    vertex 0.879879 -0.475197 1.90552
    vertex 1.5 -0.492404 1.83682
    vertex 1.5 -0.469846 1.92101
  endloop
endfacet
facet normal 0.00109427 -0.967664 0.252241
  outer loop
    vertex 0.879879 -0.475197 1.90552
    vertex 0.871373 -0.49062 1.84639
    vertex 1.5 -0.492404 1.83682
  endloop
endfacet
facet normal 0.00312623 -0.906303 0.422616
  outer loop
    vertex 0.891608 -0.452809 1.96205
    vertex 1.5 -0.469846 1.92101
    vertex 1.5 -0.433013 2
  endloop
endfacet
facet normal -0.00118006 -0.929642 0.368463
  outer loop
    vertex 0.891608 -0.452809 1.96205
    vertex 0.879879 -0.475197 1.90552
    vertex 1.5 -0.469846 1.92101
  endloop
endfacet
facet normal -0.00126781 -0.878156 0.478373
  outer loop
    vertex 0.905718 -0.42388 2.01519
    vertex 0.891608 -0.452809 1.96205
    vertex 1.5 -0.433013 2
  endloop
endfacet
facet normal 0.00123561 -0.819151 0.573576
  outer loop
    vertex 0.921302 -0.388849 2.06432
    vertex 1.5 -0.433013 2
    vertex 1.5 -0.383022 2.07139
  endloop
endfacet
facet normal 0.00230919 -0.814556 0.58008
  outer loop
    vertex 0.921302 -0.388849 2.06432
    vertex 0.905718 -0.42388 2.01519
    vertex 1.5 -0.433013 2
  endloop
endfacet
facet normal 0.00328199 -0.707103 0.707103
  outer loop
    vertex 0.937416 -0.348211 2.10882
    vertex 1.5 -0.383022 2.07139
    vertex 1.5 -0.321394 2.13302
  endloop
endfacet
facet normal -0.000812863 -0.738254 0.674522
  outer loop
    vertex 0.937416 -0.348211 2.10882
    vertex 0.921302 -0.388849 2.06432
    vertex 1.5 -0.383022 2.07139
  endloop
endfacet
facet normal 0.00278942 -0.573574 0.819149
  outer loop
    vertex 0.953156 -0.302479 2.14813
    vertex 1.5 -0.321394 2.13302
    vertex 1.5 -0.25 2.18301
  endloop
endfacet
facet normal -0.00158086 -0.651563 0.758593
  outer loop
    vertex 0.953156 -0.302479 2.14813
    vertex 0.937416 -0.348211 2.10882
    vertex 1.5 -0.321394 2.13302
  endloop
endfacet
facet normal 0.000304154 -0.555776 0.831332
  outer loop
    vertex 0.96767 -0.252219 2.18172
    vertex 0.953156 -0.302479 2.14813
    vertex 1.5 -0.25 2.18301
  endloop
endfacet
facet normal 0.00325501 -0.422616 0.906303
  outer loop
    vertex 0.980188 -0.198068 2.2091
    vertex 1.5 -0.25 2.18301
    vertex 1.5 -0.17101 2.21985
  endloop
endfacet
facet normal -0.000280452 -0.451066 0.89249
  outer loop
    vertex 0.980188 -0.198068 2.2091
    vertex 0.96767 -0.252219 2.18172
    vertex 1.5 -0.25 2.18301
  endloop
endfacet
facet normal 0.00345991 -0.258817 0.96592
  outer loop
    vertex 0.990048 -0.14073 2.22979
    vertex 1.5 -0.17101 2.21985
    vertex 1.5 -0.0868241 2.2424
  endloop
endfacet
facet normal -0.00180133 -0.339155 0.940729
  outer loop
    vertex 0.990048 -0.14073 2.22979
    vertex 0.980188 -0.198068 2.2091
    vertex 1.5 -0.17101 2.21985
  endloop
endfacet
facet normal -0.000639417 -0.222165 0.975009
  outer loop
    vertex 0.996707 -0.0810866 2.24338
    vertex 0.990048 -0.14073 2.22979
    vertex 1.5 -0.0868241 2.2424
  endloop
endfacet
facet normal 0.0037823 -0.0871551 0.996188
  outer loop
    vertex 0.999172 -0.0406976 2.24834
    vertex 1.5 -0.0868241 2.2424
    vertex 1.5 -7.27364e-016 2.25
  endloop
endfacet
facet normal 0.000537431 -0.121917 0.99254
  outer loop
    vertex 0.999172 -0.0406976 2.24834
    vertex 0.996707 -0.0810866 2.24338
    vertex 1.5 -0.0868241 2.2424
  endloop
endfacet
facet normal -5.42651e-017 -0.0407314 0.99917
  outer loop
    vertex 1 -6.12303e-017 2.25
    vertex 0.999172 -0.0406976 2.24834
    vertex 1.5 -7.27364e-016 2.25
  endloop
endfacet
facet normal 0.00271684 0.0871554 0.996191
  outer loop
    vertex 0.997777 0.0666354 2.24554
    vertex 1.5 -7.27364e-016 2.25
    vertex 1.5 0.0868241 2.2424
  endloop
endfacet
facet normal 8.92889e-017 0.0667845 0.997767
  outer loop
    vertex 0.997777 0.0666354 2.24554
    vertex 1 -6.12303e-017 2.25
    vertex 1.5 -7.27364e-016 2.25
  endloop
endfacet
facet normal 0.0037263 0.258817 0.965919
  outer loop
    vertex 0.991257 0.131947 2.23228
    vertex 1.5 0.0868241 2.2424
    vertex 1.5 0.17101 2.21985
  endloop
endfacet
facet normal -0.00187384 0.198844 0.980029
  outer loop
    vertex 0.991257 0.131947 2.23228
    vertex 0.997777 0.0666354 2.24554
    vertex 1.5 0.0868241 2.2424
  endloop
endfacet
facet normal 0.00302794 0.422616 0.906304
  outer loop
    vertex 0.980865 0.19469 2.21054
    vertex 1.5 0.17101 2.21985
    vertex 1.5 0.25 2.18301
  endloop
endfacet
facet normal -0.00202464 0.327059 0.945002
  outer loop
    vertex 0.980865 0.19469 2.21054
    vertex 0.991257 0.131947 2.23228
    vertex 1.5 0.17101 2.21985
  endloop
endfacet
facet normal -0.000499825 0.449297 0.893382
  outer loop
    vertex 0.967279 0.253717 2.18085
    vertex 0.980865 0.19469 2.21054
    vertex 1.5 0.25 2.18301
  endloop
endfacet
facet normal 0.00218518 0.573575 0.81915
  outer loop
    vertex 0.951351 0.308108 2.14379
    vertex 1.5 0.25 2.18301
    vertex 1.5 0.321394 2.13302
  endloop
endfacet
facet normal 0.000567353 0.563159 0.826349
  outer loop
    vertex 0.951351 0.308108 2.14379
    vertex 0.967279 0.253717 2.18085
    vertex 1.5 0.25 2.18301
  endloop
endfacet
facet normal -0.00141706 0.664264 0.747497
  outer loop
    vertex 0.934821 0.355119 2.10198
    vertex 0.951351 0.308108 2.14379
    vertex 1.5 0.321394 2.13302
  endloop
endfacet
facet normal 0.00335773 0.707103 0.707103
  outer loop
    vertex 0.934821 0.355119 2.10198
    vertex 1.5 0.321394 2.13302
    vertex 1.5 0.383022 2.07139
  endloop
endfacet
facet normal -0.00135718 0.751133 0.66015
  outer loop
    vertex 0.918729 0.394888 2.0567
    vertex 0.934821 0.355119 2.10198
    vertex 1.5 0.383022 2.07139
  endloop
endfacet
facet normal 0.0022202 0.81915 0.573575
  outer loop
    vertex 0.918729 0.394888 2.0567
    vertex 1.5 0.383022 2.07139
    vertex 1.5 0.433013 2
  endloop
endfacet
facet normal 0.000910891 0.825491 0.564415
  outer loop
    vertex 0.90332 0.428967 2.00688
    vertex 0.918729 0.394888 2.0567
    vertex 1.5 0.433013 2
  endloop
endfacet
facet normal -0.000701161 0.88739 0.461019
  outer loop
    vertex 0.889534 0.456869 1.95315
    vertex 0.90332 0.428967 2.00688
    vertex 1.5 0.433013 2
  endloop
endfacet
facet normal 0.00298508 0.906304 0.422616
  outer loop
    vertex 0.889534 0.456869 1.95315
    vertex 1.5 0.433013 2
    vertex 1.5 0.469846 1.92101
  endloop
endfacet
facet normal -0.00147324 0.936674 0.350201
  outer loop
    vertex 0.87827 0.478165 1.89615
    vertex 0.889534 0.456869 1.95315
    vertex 1.5 0.469846 1.92101
  endloop
endfacet
facet normal 0.0025727 0.965923 0.258818
  outer loop
    vertex 0.87827 0.478165 1.89615
    vertex 1.5 0.469846 1.92101
    vertex 1.5 0.492404 1.83682
  endloop
endfacet
facet normal -1.33925e-005 0.972412 0.233272
  outer loop
    vertex 0.870353 0.492428 1.83669
    vertex 0.87827 0.478165 1.89615
    vertex 1.5 0.492404 1.83682
  endloop
endfacet
facet normal 1.34907e-005 0.993634 0.11266
  outer loop
    vertex 0.866408 0.499336 1.77576
    vertex 0.870353 0.492428 1.83669
    vertex 1.5 0.492404 1.83682
  endloop
endfacet
facet normal 0.00249953 0.996192 0.0871555
  outer loop
    vertex 0.866408 0.499336 1.77576
    vertex 1.5 0.492404 1.83682
    vertex 1.5 0.5 1.75
  endloop
endfacet
facet normal 0.00290437 0.99619 -0.0871554
  outer loop
    vertex 0.866758 0.498728 1.71436
    vertex 1.5 0.5 1.75
    vertex 1.5 0.492404 1.66318
  endloop
endfacet
facet normal -0.00145066 0.99995 -0.00990151
  outer loop
    vertex 0.866758 0.498728 1.71436
    vertex 0.866408 0.499336 1.77576
    vertex 1.5 0.5 1.75
  endloop
endfacet
facet normal -0.000797725 0.991204 -0.132337
  outer loop
    vertex 0.871373 0.49062 1.65361
    vertex 0.866758 0.498728 1.71436
    vertex 1.5 0.492404 1.66318
  endloop
endfacet
facet normal 0.00187126 0.965924 -0.258819
  outer loop
    vertex 0.879879 0.475197 1.59448
    vertex 1.5 0.492404 1.66318
    vertex 1.5 0.469846 1.57899
  endloop
endfacet
facet normal 0.00109428 0.967664 -0.252241
  outer loop
    vertex 0.879879 0.475197 1.59448
    vertex 0.871373 0.49062 1.65361
    vertex 1.5 0.492404 1.66318
  endloop
endfacet
facet normal 0.00312623 0.906303 -0.422616
  outer loop
    vertex 0.891608 0.452809 1.53795
    vertex 1.5 0.469846 1.57899
    vertex 1.5 0.433013 1.5
  endloop
endfacet
facet normal -0.00118005 0.929641 -0.368464
  outer loop
    vertex 0.891608 0.452809 1.53795
    vertex 0.879879 0.475197 1.59448
    vertex 1.5 0.469846 1.57899
  endloop
endfacet
facet normal -0.00126782 0.878156 -0.478373
  outer loop
    vertex 0.905718 0.42388 1.48481
    vertex 0.891608 0.452809 1.53795
    vertex 1.5 0.433013 1.5
  endloop
endfacet
facet normal 0.00123557 0.819151 -0.573576
  outer loop
    vertex 0.921302 0.388848 1.43568
    vertex 1.5 0.433013 1.5
    vertex 1.5 0.383022 1.42861
  endloop
endfacet
facet normal 0.00230924 0.814556 -0.580081
  outer loop
    vertex 0.921302 0.388848 1.43568
    vertex 0.905718 0.42388 1.48481
    vertex 1.5 0.433013 1.5
  endloop
endfacet
facet normal 0.00328198 0.707103 -0.707103
  outer loop
    vertex 0.937416 0.34821 1.39118
    vertex 1.5 0.383022 1.42861
    vertex 1.5 0.321394 1.36698
  endloop
endfacet
facet normal -0.000812838 0.738254 -0.674523
  outer loop
    vertex 0.937416 0.34821 1.39118
    vertex 0.921302 0.388848 1.43568
    vertex 1.5 0.383022 1.42861
  endloop
endfacet
facet normal 0.00278946 0.573574 -0.819149
  outer loop
    vertex 0.953156 0.302479 1.35187
    vertex 1.5 0.321394 1.36698
    vertex 1.5 0.25 1.31699
  endloop
endfacet
facet normal -0.00158088 0.651562 -0.758594
  outer loop
    vertex 0.953156 0.302479 1.35187
    vertex 0.937416 0.34821 1.39118
    vertex 1.5 0.321394 1.36698
  endloop
endfacet
facet normal 0.000304085 0.555775 -0.831333
  outer loop
    vertex 0.96767 0.252219 1.31828
    vertex 0.953156 0.302479 1.35187
    vertex 1.5 0.25 1.31699
  endloop
endfacet
facet normal 0.00325498 0.422616 -0.906303
  outer loop
    vertex 0.980188 0.198067 1.2909
    vertex 1.5 0.25 1.31699
    vertex 1.5 0.17101 1.28015
  endloop
endfacet
facet normal -0.000280393 0.451065 -0.892491
  outer loop
    vertex 0.980188 0.198067 1.2909
    vertex 0.96767 0.252219 1.31828
    vertex 1.5 0.25 1.31699
  endloop
endfacet
facet normal 0.00345994 0.258817 -0.96592
  outer loop
    vertex 0.990048 0.14073 1.27021
    vertex 1.5 0.17101 1.28015
    vertex 1.5 0.0868241 1.2576
  endloop
endfacet
facet normal -0.00180133 0.339153 -0.940729
  outer loop
    vertex 0.990048 0.14073 1.27021
    vertex 0.980188 0.198067 1.2909
    vertex 1.5 0.17101 1.28015
  endloop
endfacet
facet normal -0.000639496 0.222164 -0.975009
  outer loop
    vertex 0.996707 0.0810859 1.25662
    vertex 0.990048 0.14073 1.27021
    vertex 1.5 0.0868241 1.2576
  endloop
endfacet
facet normal 0.00378229 0.0871551 -0.996188
  outer loop
    vertex 0.999172 0.0406972 1.25166
    vertex 1.5 0.0868241 1.2576
    vertex 1.5 1.22461e-016 1.25
  endloop
endfacet
facet normal 0.000537509 0.121916 -0.99254
  outer loop
    vertex 0.999172 0.0406972 1.25166
    vertex 0.996707 0.0810859 1.25662
    vertex 1.5 0.0868241 1.2576
  endloop
endfacet
facet normal 4.43721e-016 0.040731 -0.99917
  outer loop
    vertex 1 1.22461e-016 1.25
    vertex 0.999172 0.0406972 1.25166
    vertex 1.5 1.22461e-016 1.25
  endloop
endfacet
facet normal 0.00271683 -0.0871554 -0.996191
  outer loop
    vertex 0.997777 -0.0666354 14.5045
    vertex 1.5 0 14.5
    vertex 1.5 -0.0868241 14.5076
  endloop
endfacet
facet normal 0 -0.0667845 -0.997767
  outer loop
    vertex 0.997777 -0.0666354 14.5045
    vertex 1 0 14.5
    vertex 1.5 0 14.5
  endloop
endfacet
facet normal 0.0037263 -0.258817 -0.965919
  outer loop
    vertex 0.991257 -0.131947 14.5177
    vertex 1.5 -0.0868241 14.5076
    vertex 1.5 -0.17101 14.5302
  endloop
endfacet
facet normal -0.00187384 -0.198845 -0.980029
  outer loop
    vertex 0.991257 -0.131947 14.5177
    vertex 0.997777 -0.0666354 14.5045
    vertex 1.5 -0.0868241 14.5076
  endloop
endfacet
facet normal -0.00202465 -0.327059 -0.945002
  outer loop
    vertex 0.980865 -0.19469 14.5395
    vertex 0.991257 -0.131947 14.5177
    vertex 1.5 -0.17101 14.5302
  endloop
endfacet
facet normal 0.00302796 -0.422616 -0.906304
  outer loop
    vertex 0.980865 -0.19469 14.5395
    vertex 1.5 -0.17101 14.5302
    vertex 1.5 -0.25 14.567
  endloop
endfacet
facet normal -0.000499862 -0.449298 -0.893382
  outer loop
    vertex 0.967278 -0.253717 14.5692
    vertex 0.980865 -0.19469 14.5395
    vertex 1.5 -0.25 14.567
  endloop
endfacet
facet normal 0.00218514 -0.573575 -0.81915
  outer loop
    vertex 0.951351 -0.308108 14.6062
    vertex 1.5 -0.25 14.567
    vertex 1.5 -0.321394 14.617
  endloop
endfacet
facet normal 0.0005674 -0.563159 -0.826348
  outer loop
    vertex 0.951351 -0.308108 14.6062
    vertex 0.967278 -0.253717 14.5692
    vertex 1.5 -0.25 14.567
  endloop
endfacet
facet normal 0.00335773 -0.707103 -0.707103
  outer loop
    vertex 0.934821 -0.355119 14.648
    vertex 1.5 -0.321394 14.617
    vertex 1.5 -0.383022 14.6786
  endloop
endfacet
facet normal -0.00141704 -0.664264 -0.747496
  outer loop
    vertex 0.934821 -0.355119 14.648
    vertex 0.951351 -0.308108 14.6062
    vertex 1.5 -0.321394 14.617
  endloop
endfacet
facet normal 0.00222023 -0.81915 -0.573575
  outer loop
    vertex 0.918729 -0.394888 14.6933
    vertex 1.5 -0.383022 14.6786
    vertex 1.5 -0.433013 14.75
  endloop
endfacet
facet normal -0.00135719 -0.751133 -0.660149
  outer loop
    vertex 0.918729 -0.394888 14.6933
    vertex 0.934821 -0.355119 14.648
    vertex 1.5 -0.383022 14.6786
  endloop
endfacet
facet normal 0.000910856 -0.825491 -0.564415
  outer loop
    vertex 0.90332 -0.428967 14.7431
    vertex 0.918729 -0.394888 14.6933
    vertex 1.5 -0.433013 14.75
  endloop
endfacet
facet normal 0.00298508 -0.906304 -0.422616
  outer loop
    vertex 0.889534 -0.456869 14.7968
    vertex 1.5 -0.433013 14.75
    vertex 1.5 -0.469846 14.829
  endloop
endfacet
facet normal -0.00070114 -0.88739 -0.461019
  outer loop
    vertex 0.889534 -0.456869 14.7968
    vertex 0.90332 -0.428967 14.7431
    vertex 1.5 -0.433013 14.75
  endloop
endfacet
facet normal 0.00257271 -0.965923 -0.258818
  outer loop
    vertex 0.87827 -0.478165 14.8539
    vertex 1.5 -0.469846 14.829
    vertex 1.5 -0.492404 14.9132
  endloop
endfacet
facet normal -0.00147324 -0.936674 -0.3502
  outer loop
    vertex 0.87827 -0.478165 14.8539
    vertex 0.889534 -0.456869 14.7968
    vertex 1.5 -0.469846 14.829
  endloop
endfacet
facet normal -1.34003e-005 -0.972412 -0.233272
  outer loop
    vertex 0.870353 -0.492428 14.9133
    vertex 0.87827 -0.478165 14.8539
    vertex 1.5 -0.492404 14.9132
  endloop
endfacet
facet normal 0.00249953 -0.996192 -0.0871555
  outer loop
    vertex 0.866408 -0.499336 14.9742
    vertex 1.5 -0.492404 14.9132
    vertex 1.5 -0.5 15
  endloop
endfacet
facet normal 1.34987e-005 -0.993634 -0.11266
  outer loop
    vertex 0.866408 -0.499336 14.9742
    vertex 0.870353 -0.492428 14.9133
    vertex 1.5 -0.492404 14.9132
  endloop
endfacet
facet normal 0.00290437 -0.99619 0.0871554
  outer loop
    vertex 0.866758 -0.498728 15.0356
    vertex 1.5 -0.5 15
    vertex 1.5 -0.492404 15.0868
  endloop
endfacet
facet normal -0.00145066 -0.99995 0.00990148
  outer loop
    vertex 0.866758 -0.498728 15.0356
    vertex 0.866408 -0.499336 14.9742
    vertex 1.5 -0.5 15
  endloop
endfacet
facet normal -0.000797716 -0.991204 0.132337
  outer loop
    vertex 0.871373 -0.49062 15.0964
    vertex 0.866758 -0.498728 15.0356
    vertex 1.5 -0.492404 15.0868
  endloop
endfacet
facet normal 0.00187128 -0.965924 0.258819
  outer loop
    vertex 0.879879 -0.475197 15.1555
    vertex 1.5 -0.492404 15.0868
    vertex 1.5 -0.469846 15.171
  endloop
endfacet
facet normal 0.00109427 -0.967664 0.252241
  outer loop
    vertex 0.879879 -0.475197 15.1555
    vertex 0.871373 -0.49062 15.0964
    vertex 1.5 -0.492404 15.0868
  endloop
endfacet
facet normal 0.00312623 -0.906303 0.422616
  outer loop
    vertex 0.891608 -0.452809 15.212
    vertex 1.5 -0.469846 15.171
    vertex 1.5 -0.433013 15.25
  endloop
endfacet
facet normal -0.00118006 -0.929642 0.368463
  outer loop
    vertex 0.891608 -0.452809 15.212
    vertex 0.879879 -0.475197 15.1555
    vertex 1.5 -0.469846 15.171
  endloop
endfacet
facet normal -0.00126781 -0.878156 0.478373
  outer loop
    vertex 0.905718 -0.42388 15.2652
    vertex 0.891608 -0.452809 15.212
    vertex 1.5 -0.433013 15.25
  endloop
endfacet
facet normal 0.00123561 -0.819151 0.573576
  outer loop
    vertex 0.921302 -0.388849 15.3143
    vertex 1.5 -0.433013 15.25
    vertex 1.5 -0.383022 15.3214
  endloop
endfacet
facet normal 0.00230919 -0.814556 0.58008
  outer loop
    vertex 0.921302 -0.388849 15.3143
    vertex 0.905718 -0.42388 15.2652
    vertex 1.5 -0.433013 15.25
  endloop
endfacet
facet normal 0.00328199 -0.707103 0.707103
  outer loop
    vertex 0.937416 -0.348211 15.3588
    vertex 1.5 -0.383022 15.3214
    vertex 1.5 -0.321394 15.383
  endloop
endfacet
facet normal -0.000812863 -0.738254 0.674522
  outer loop
    vertex 0.937416 -0.348211 15.3588
    vertex 0.921302 -0.388849 15.3143
    vertex 1.5 -0.383022 15.3214
  endloop
endfacet
facet normal 0.00278942 -0.573574 0.819149
  outer loop
    vertex 0.953156 -0.302479 15.3981
    vertex 1.5 -0.321394 15.383
    vertex 1.5 -0.25 15.433
  endloop
endfacet
facet normal -0.00158086 -0.651563 0.758593
  outer loop
    vertex 0.953156 -0.302479 15.3981
    vertex 0.937416 -0.348211 15.3588
    vertex 1.5 -0.321394 15.383
  endloop
endfacet
facet normal 0.000304154 -0.555776 0.831332
  outer loop
    vertex 0.96767 -0.252219 15.4317
    vertex 0.953156 -0.302479 15.3981
    vertex 1.5 -0.25 15.433
  endloop
endfacet
facet normal 0.00325501 -0.422616 0.906303
  outer loop
    vertex 0.980188 -0.198068 15.4591
    vertex 1.5 -0.25 15.433
    vertex 1.5 -0.17101 15.4698
  endloop
endfacet
facet normal -0.000280452 -0.451066 0.89249
  outer loop
    vertex 0.980188 -0.198068 15.4591
    vertex 0.96767 -0.252219 15.4317
    vertex 1.5 -0.25 15.433
  endloop
endfacet
facet normal 0.00345991 -0.258817 0.96592
  outer loop
    vertex 0.990048 -0.14073 15.4798
    vertex 1.5 -0.17101 15.4698
    vertex 1.5 -0.0868241 15.4924
  endloop
endfacet
facet normal -0.00180133 -0.339155 0.940729
  outer loop
    vertex 0.990048 -0.14073 15.4798
    vertex 0.980188 -0.198068 15.4591
    vertex 1.5 -0.17101 15.4698
  endloop
endfacet
facet normal -0.000639417 -0.222165 0.975009
  outer loop
    vertex 0.996707 -0.0810866 15.4934
    vertex 0.990048 -0.14073 15.4798
    vertex 1.5 -0.0868241 15.4924
  endloop
endfacet
facet normal 0.0037823 -0.0871551 0.996188
  outer loop
    vertex 0.999172 -0.0406976 15.4983
    vertex 1.5 -0.0868241 15.4924
    vertex 1.5 -9.49409e-016 15.5
  endloop
endfacet
facet normal 0.000537431 -0.121917 0.99254
  outer loop
    vertex 0.999172 -0.0406976 15.4983
    vertex 0.996707 -0.0810866 15.4934
    vertex 1.5 -0.0868241 15.4924
  endloop
endfacet
facet normal -7.23535e-017 -0.0407314 0.99917
  outer loop
    vertex 1 -6.12303e-017 15.5
    vertex 0.999172 -0.0406976 15.4983
    vertex 1.5 -9.49409e-016 15.5
  endloop
endfacet
facet normal 0.00271684 0.0871554 0.996191
  outer loop
    vertex 0.997777 0.0666354 15.4955
    vertex 1.5 -9.49409e-016 15.5
    vertex 1.5 0.0868241 15.4924
  endloop
endfacet
facet normal 1.18511e-016 0.0667845 0.997767
  outer loop
    vertex 0.997777 0.0666354 15.4955
    vertex 1 -6.12303e-017 15.5
    vertex 1.5 -9.49409e-016 15.5
  endloop
endfacet
facet normal 0.0037263 0.258817 0.965919
  outer loop
    vertex 0.991257 0.131947 15.4823
    vertex 1.5 0.0868241 15.4924
    vertex 1.5 0.17101 15.4698
  endloop
endfacet
facet normal -0.00187384 0.198844 0.980029
  outer loop
    vertex 0.991257 0.131947 15.4823
    vertex 0.997777 0.0666354 15.4955
    vertex 1.5 0.0868241 15.4924
  endloop
endfacet
facet normal 0.00302794 0.422616 0.906304
  outer loop
    vertex 0.980865 0.19469 15.4605
    vertex 1.5 0.17101 15.4698
    vertex 1.5 0.25 15.433
  endloop
endfacet
facet normal -0.00202464 0.327059 0.945002
  outer loop
    vertex 0.980865 0.19469 15.4605
    vertex 0.991257 0.131947 15.4823
    vertex 1.5 0.17101 15.4698
  endloop
endfacet
facet normal -0.000499825 0.449297 0.893382
  outer loop
    vertex 0.967279 0.253717 15.4308
    vertex 0.980865 0.19469 15.4605
    vertex 1.5 0.25 15.433
  endloop
endfacet
facet normal 0.00218518 0.573575 0.81915
  outer loop
    vertex 0.951351 0.308108 15.3938
    vertex 1.5 0.25 15.433
    vertex 1.5 0.321394 15.383
  endloop
endfacet
facet normal 0.000567353 0.563159 0.826349
  outer loop
    vertex 0.951351 0.308108 15.3938
    vertex 0.967279 0.253717 15.4308
    vertex 1.5 0.25 15.433
  endloop
endfacet
facet normal -0.00141706 0.664264 0.747497
  outer loop
    vertex 0.934821 0.355119 15.352
    vertex 0.951351 0.308108 15.3938
    vertex 1.5 0.321394 15.383
  endloop
endfacet
facet normal 0.00335773 0.707103 0.707103
  outer loop
    vertex 0.934821 0.355119 15.352
    vertex 1.5 0.321394 15.383
    vertex 1.5 0.383022 15.3214
  endloop
endfacet
facet normal -0.00135718 0.751133 0.66015
  outer loop
    vertex 0.918729 0.394888 15.3067
    vertex 0.934821 0.355119 15.352
    vertex 1.5 0.383022 15.3214
  endloop
endfacet
facet normal 0.0022202 0.81915 0.573575
  outer loop
    vertex 0.918729 0.394888 15.3067
    vertex 1.5 0.383022 15.3214
    vertex 1.5 0.433013 15.25
  endloop
endfacet
facet normal 0.000910891 0.825491 0.564415
  outer loop
    vertex 0.90332 0.428967 15.2569
    vertex 0.918729 0.394888 15.3067
    vertex 1.5 0.433013 15.25
  endloop
endfacet
facet normal -0.000701161 0.88739 0.461019
  outer loop
    vertex 0.889534 0.456869 15.2032
    vertex 0.90332 0.428967 15.2569
    vertex 1.5 0.433013 15.25
  endloop
endfacet
facet normal 0.00298508 0.906304 0.422616
  outer loop
    vertex 0.889534 0.456869 15.2032
    vertex 1.5 0.433013 15.25
    vertex 1.5 0.469846 15.171
  endloop
endfacet
facet normal -0.00147324 0.936674 0.350201
  outer loop
    vertex 0.87827 0.478165 15.1461
    vertex 0.889534 0.456869 15.2032
    vertex 1.5 0.469846 15.171
  endloop
endfacet
facet normal 0.0025727 0.965923 0.258818
  outer loop
    vertex 0.87827 0.478165 15.1461
    vertex 1.5 0.469846 15.171
    vertex 1.5 0.492404 15.0868
  endloop
endfacet
facet normal -1.33925e-005 0.972412 0.233272
  outer loop
    vertex 0.870353 0.492428 15.0867
    vertex 0.87827 0.478165 15.1461
    vertex 1.5 0.492404 15.0868
  endloop
endfacet
facet normal 1.34907e-005 0.993634 0.11266
  outer loop
    vertex 0.866408 0.499336 15.0258
    vertex 0.870353 0.492428 15.0867
    vertex 1.5 0.492404 15.0868
  endloop
endfacet
facet normal 0.00249953 0.996192 0.0871555
  outer loop
    vertex 0.866408 0.499336 15.0258
    vertex 1.5 0.492404 15.0868
    vertex 1.5 0.5 15
  endloop
endfacet
facet normal 0.00290437 0.99619 -0.0871554
  outer loop
    vertex 0.866758 0.498728 14.9644
    vertex 1.5 0.5 15
    vertex 1.5 0.492404 14.9132
  endloop
endfacet
facet normal -0.00145066 0.99995 -0.00990151
  outer loop
    vertex 0.866758 0.498728 14.9644
    vertex 0.866408 0.499336 15.0258
    vertex 1.5 0.5 15
  endloop
endfacet
facet normal -0.000797725 0.991204 -0.132337
  outer loop
    vertex 0.871373 0.49062 14.9036
    vertex 0.866758 0.498728 14.9644
    vertex 1.5 0.492404 14.9132
  endloop
endfacet
facet normal 0.00187126 0.965924 -0.258819
  outer loop
    vertex 0.879879 0.475197 14.8445
    vertex 1.5 0.492404 14.9132
    vertex 1.5 0.469846 14.829
  endloop
endfacet
facet normal 0.00109428 0.967664 -0.252241
  outer loop
    vertex 0.879879 0.475197 14.8445
    vertex 0.871373 0.49062 14.9036
    vertex 1.5 0.492404 14.9132
  endloop
endfacet
facet normal 0.00312623 0.906303 -0.422616
  outer loop
    vertex 0.891608 0.452809 14.788
    vertex 1.5 0.469846 14.829
    vertex 1.5 0.433013 14.75
  endloop
endfacet
facet normal -0.00118005 0.929641 -0.368464
  outer loop
    vertex 0.891608 0.452809 14.788
    vertex 0.879879 0.475197 14.8445
    vertex 1.5 0.469846 14.829
  endloop
endfacet
facet normal -0.00126782 0.878156 -0.478373
  outer loop
    vertex 0.905718 0.42388 14.7348
    vertex 0.891608 0.452809 14.788
    vertex 1.5 0.433013 14.75
  endloop
endfacet
facet normal 0.00123557 0.819151 -0.573576
  outer loop
    vertex 0.921302 0.388848 14.6857
    vertex 1.5 0.433013 14.75
    vertex 1.5 0.383022 14.6786
  endloop
endfacet
facet normal 0.00230924 0.814556 -0.580081
  outer loop
    vertex 0.921302 0.388848 14.6857
    vertex 0.905718 0.42388 14.7348
    vertex 1.5 0.433013 14.75
  endloop
endfacet
facet normal 0.00328198 0.707103 -0.707103
  outer loop
    vertex 0.937416 0.34821 14.6412
    vertex 1.5 0.383022 14.6786
    vertex 1.5 0.321394 14.617
  endloop
endfacet
facet normal -0.000812838 0.738254 -0.674523
  outer loop
    vertex 0.937416 0.34821 14.6412
    vertex 0.921302 0.388848 14.6857
    vertex 1.5 0.383022 14.6786
  endloop
endfacet
facet normal 0.00278946 0.573574 -0.819149
  outer loop
    vertex 0.953156 0.302479 14.6019
    vertex 1.5 0.321394 14.617
    vertex 1.5 0.25 14.567
  endloop
endfacet
facet normal -0.00158088 0.651562 -0.758594
  outer loop
    vertex 0.953156 0.302479 14.6019
    vertex 0.937416 0.34821 14.6412
    vertex 1.5 0.321394 14.617
  endloop
endfacet
facet normal 0.000304085 0.555775 -0.831333
  outer loop
    vertex 0.96767 0.252219 14.5683
    vertex 0.953156 0.302479 14.6019
    vertex 1.5 0.25 14.567
  endloop
endfacet
facet normal 0.00325498 0.422616 -0.906303
  outer loop
    vertex 0.980188 0.198067 14.5409
    vertex 1.5 0.25 14.567
    vertex 1.5 0.17101 14.5302
  endloop
endfacet
facet normal -0.000280393 0.451065 -0.892491
  outer loop
    vertex 0.980188 0.198067 14.5409
    vertex 0.96767 0.252219 14.5683
    vertex 1.5 0.25 14.567
  endloop
endfacet
facet normal 0.00345994 0.258817 -0.96592
  outer loop
    vertex 0.990048 0.14073 14.5202
    vertex 1.5 0.17101 14.5302
    vertex 1.5 0.0868241 14.5076
  endloop
endfacet
facet normal -0.00180133 0.339153 -0.940729
  outer loop
    vertex 0.990048 0.14073 14.5202
    vertex 0.980188 0.198067 14.5409
    vertex 1.5 0.17101 14.5302
  endloop
endfacet
facet normal -0.000639496 0.222164 -0.975009
  outer loop
    vertex 0.996707 0.0810859 14.5066
    vertex 0.990048 0.14073 14.5202
    vertex 1.5 0.0868241 14.5076
  endloop
endfacet
facet normal 0.00378229 0.0871551 -0.996188
  outer loop
    vertex 0.999172 0.0406972 14.5017
    vertex 1.5 0.0868241 14.5076
    vertex 1.5 1.22461e-016 14.5
  endloop
endfacet
facet normal 0.000537509 0.121916 -0.99254
  outer loop
    vertex 0.999172 0.0406972 14.5017
    vertex 0.996707 0.0810859 14.5066
    vertex 1.5 0.0868241 14.5076
  endloop
endfacet
facet normal 0 0.040731 -0.99917
  outer loop
    vertex 1 1.22461e-016 14.5
    vertex 0.999172 0.0406972 14.5017
    vertex 1.5 1.22461e-016 14.5
  endloop
endfacet
endsolid Created by Gmsh
